HIERARCHY
ROOT Hips
{
	OFFSET 0.000000 0.000000 0.000000 
	CHANNELS 6 Xposition Yposition Zposition Yrotation Zrotation Xrotation 
	JOINT Lumbar
	{
		OFFSET 0.000000 0.000000 0.000000 
		CHANNELS 3 Zrotation Xrotation Yrotation
		JOINT Neck
		{
			OFFSET 0.000000 0.445665 0.000000 
			CHANNELS 3 Zrotation Xrotation Yrotation
			End Site
			{
				OFFSET 0.000000 0.227535 0.000000 
			}
		}
		JOINT RightShoulder
		{
			OFFSET 0.019635 0.377685 0.194865 
			CHANNELS 3 Zrotation Xrotation Yrotation
			JOINT RightElbow
			{
				OFFSET 0.000000 -0.243375 0.000000 
				CHANNELS 2 Zrotation Yrotation
				JOINT RightWrist
				{
					OFFSET 0.000000 -0.264825 0.000000 
					CHANNELS 2 Zrotation Xrotation
					End Site
					{
						OFFSET 0.006600 -0.176220 0.000990 
					}
				}
			}
		}
		JOINT LeftShoulder
		{
			OFFSET 0.019635 0.377685 -0.194865 
			CHANNELS 3 Zrotation Xrotation Yrotation
			JOINT LeftElbow
			{
				OFFSET 0.000000 -0.243375 0.000000 
				CHANNELS 2 Zrotation Yrotation
				JOINT LeftWrist
				{
					OFFSET 0.000000 -0.264825 0.000000 
					CHANNELS 2 Zrotation Xrotation
					End Site
					{
						OFFSET 0.006600 -0.176220 -0.000990 
					}
				}
			}
		}
	}
	JOINT RightHip
	{
		OFFSET 0.052140 -0.069960 0.075570 
		CHANNELS 3 Zrotation Xrotation Yrotation
		JOINT RightKnee
		{
			OFFSET 0.000000 -0.402270 0.000000 
			CHANNELS 1 Zrotation
			JOINT RightAnkle
			{
				OFFSET 0.000000 -0.404085 0.000000 
				CHANNELS 3 Zrotation Xrotation Yrotation
				End Site
				{
					OFFSET 0.204105 -0.089430 0.008415 
				}
			}
		}
	}
	JOINT LeftHip
	{
		OFFSET 0.052140 -0.069960 -0.075570 
		CHANNELS 3 Zrotation Xrotation Yrotation
		JOINT LeftKnee
		{
			OFFSET 0.000000 -0.402270 0.000000 
			CHANNELS 1 Zrotation
			JOINT LeftAnkle
			{
				OFFSET 0.000000 -0.404085 0.000000 
				CHANNELS 3 Zrotation Xrotation Yrotation
				End Site
				{
					OFFSET 0.204105 -0.089430 -0.008415 
				}
			}
		}
	}
}
MOTION
Frames: 16
Frame Time: 0.02
0.00516 0.01652 -0.07271 -143.75051 -55.81619 5.2358 34.65206 6.57396 -4.97509 27.6603 -21.32959 -0.83078 152.39311 11.38478 64.11722 36.74477 71.71926 21.44004 -5.0289 127.06053 0.53944 -61.2869 65.8591 -52.44727 51.95567 6.08789 64.94613 -2.00211 -4.77123 -17.02992 -8.63904 -3.54253 -2.59689 68.07032 1.44405 3.84847 -23.50837 -8.83143 2.07501 1.76829
0.00465 0.0164 -0.07289 -144.09082 -56.21817 5.18861 34.64086 6.54108 -4.95972 27.49 -21.73432 -0.83078 152.10433 11.21177 63.54064 37.90261 71.32847 22.7319 -5.00443 127.47053 1.05831 -61.21486 67.13514 -51.32554 51.62015 6.21649 65.34695 -1.9627 -4.90544 -17.00936 -8.60143 -3.46499 -2.55196 68.43304 1.54335 3.82965 -23.49531 -8.8201 2.09688 1.78334
0.00429 0.01621 -0.07319 -144.4344 -56.54871 5.12083 34.62415 6.49492 -4.88196 27.23845 -22.09375 -0.83078 151.56706 10.99373 62.81825 38.66363 71.54197 24.0592 -5.04008 127.99763 1.30797 -61.22988 67.09854 -50.36087 51.222 6.33723 65.72738 -1.91985 -4.96908 -17.05981 -8.56828 -3.39399 -2.51035 68.76632 1.65024 3.81147 -23.53145 -8.8062 2.10987 1.79441
0.00387 0.01604 -0.07344 -144.76998 -56.90735 5.06298 34.60792 6.45604 -4.83079 27.02952 -22.46686 -0.83078 151.1688 10.80752 62.20153 39.54915 71.46215 25.34744 -5.07762 128.46589 1.67361 -61.20136 67.63677 -49.35097 50.84893 6.45907 66.11322 -1.87793 -5.06046 -17.07841 -8.5335 -3.32226 -2.46852 69.10806 1.75156 3.78869 -23.54743 -8.79274 2.12779 1.80762
0.0034 0.01589 -0.07367 -145.13674 -57.28548 5.001 34.59979 6.41115 -4.78548 26.79926 -22.86953 -0.83078 150.66477 10.57292 61.42363 40.6504 71.44379 26.73865 -4.99373 128.96435 2.08568 -61.18805 68.27835 -48.24195 50.4691 6.59172 66.51754 -1.83901 -5.17596 -17.09726 -8.49633 -3.24019 -2.42073 69.4675 1.86095 3.77519 -23.5634 -8.78011 2.14435 1.8207
0.00307 0.01571 -0.07397 -145.43773 -57.60476 4.94321 34.5737 6.37574 -4.71419 26.59256 -23.19817 -0.83078 150.31604 10.427 60.94002 41.22125 71.44808 27.91715 -5.16836 129.42395 2.32869 -61.16445 68.38274 -47.37221 50.09691 6.69983 66.87657 -1.79309 -5.22377 -17.13151 -8.4654 -3.18131 -2.3862 69.78325 1.95577 3.74622 -23.58758 -8.76595 2.16062 1.83257
0.00312 0.01545 -0.07448 -145.55882 -57.78983 4.90413 34.49894 6.37194 -4.58096 26.47714 -23.35092 -0.83078 150.5126 10.55639 61.36669 40.35018 71.35685 28.55686 -6.14289 129.76469 2.18345 -61.09096 67.39142 -47.1287 49.7555 6.74191 67.12904 -1.72636 -5.08175 -17.19324 -8.45164 -3.18802 -2.38924 69.99762 2.00701 3.6696 -23.62165 -8.74874 2.17955 1.84276
0.0033 0.01517 -0.07506 -145.61283 -57.91599 4.86983 34.40661 6.37777 -4.42492 26.38663 -23.42667 -0.83078 150.86523 10.77313 62.08457 38.97068 71.26837 28.97333 -7.35946 130.05916 1.87359 -61.00519 65.88968 -47.11959 49.42705 6.75944 67.33383 -1.65306 -4.87617 -17.26742 -8.44396 -3.21751 -2.40532 70.16717 2.04345 3.57857 -23.66111 -8.7303 2.19809 1.85165
0.00341 0.01491 -0.07561 -145.69515 -58.06222 4.8323 34.32241 6.378 -4.28306 26.28041 -23.52763 -0.83078 151.10812 10.93768 62.62662 37.87997 71.19225 29.45058 -8.39794 130.36191 1.62658 -60.92423 64.57976 -46.99727 49.1004 6.78843 67.55164 -1.58428 -4.71249 -17.33398 -8.43293 -3.23459 -2.41431 70.35024 2.08808 3.4997 -23.69727 -8.71238 2.21544 1.86039
0.00357 0.01462 -0.07618 -145.786 -58.23484 4.7986 34.23664 6.38329 -4.12286 26.19043 -23.6723 -0.83078 151.50005 11.15402 63.34094 36.54855 71.09396 30.08884 -9.71872 130.71946 1.41596 -60.84596 63.4016 -46.90331 48.74226 6.81633 67.80588 -1.50898 -4.49375 -17.41093 -8.42445 -3.26023 -2.42812 70.56209 2.12788 3.40087 -23.73891 -8.69445 2.23767 1.87179
0.00365 0.01438 -0.07671 -145.84414 -58.33873 4.75816 34.15098 6.38006 -3.9963 26.07299 -23.7032 -0.83078 151.62953 11.28299 63.77533 35.58153 71.01651 30.35325 -10.51719 130.95436 1.10025 -60.76252 61.83486 -46.81081 48.44923 6.84019 67.9724 -1.44564 -4.37274 -17.46877 -8.41212 -3.27376 -2.43517 70.70252 2.17276 3.33539 -23.76972 -8.67635 2.25055 1.87784
0.00356 0.01426 -0.07708 -145.81966 -58.27326 4.6996 34.0623 6.35502 -3.96837 25.87902 -23.48192 -0.83078 150.92805 11.15289 63.29771 35.93865 71.1548 29.50557 -9.73636 130.8245 0.48534 -60.62762 59.41927 -46.6042 48.36856 6.86437 67.9144 -1.41782 -4.56137 -17.46573 -8.38694 -3.2451 -2.41857 70.66672 2.24773 3.4102 -23.76896 -8.65766 2.23039 1.86536
0.00338 0.0142 -0.07739 -145.76641 -58.13971 4.63377 33.97602 6.32042 -3.97551 25.65591 -23.14083 -0.83078 149.96864 10.92869 62.54078 36.65109 71.28515 28.31051 -8.43528 130.57769 -0.21593 -60.49394 56.62409 -46.40129 48.34422 6.88459 67.76831 -1.40206 -4.84677 -17.44353 -8.35776 -3.204 -2.39502 70.55845 2.32648 3.51281 -23.75689 -8.63888 2.20197 1.84816
0.00321 0.01411 -0.07771 -145.73173 -58.03403 4.57044 33.89341 6.28758 -3.9666 25.44308 -22.82672 -0.83078 149.17624 10.74897 61.95808 37.0695 71.30712 27.36719 -7.42375 130.41026 -0.8481 -60.38702 53.93685 -46.236 48.27413 6.90279 67.65919 -1.38025 -5.0718 -17.43313 -8.33091 -3.17068 -2.37584 70.47746 2.39463 3.57084 -23.74996 -8.62049 2.1825 1.83604
0.00316 0.01401 -0.0781 -145.67058 -57.94004 4.51117 33.78919 6.2659 -3.95672 25.24377 -22.62647 -0.83078 148.1887 10.57625 61.18961 38.00845 71.78667 26.03518 -6.19847 130.13673 -1.6254 -60.16884 51.47972 -45.91395 48.29956 6.93531 67.56302 -1.3608 -5.36211 -17.41044 -8.30224 -3.12929 -2.35208 70.42045 2.49761 3.75483 -23.7433 -8.60079 2.14216 1.81215
0.00283 0.01394 -0.07832 -145.65977 -57.80526 4.44103 33.73192 6.2187 -3.95827 25.00882 -22.16085 -0.83078 147.53208 10.35138 60.73315 37.98067 71.33082 25.41384 -5.28917 130.04923 -2.10222 -60.17726 48.48987 -45.91511 48.12667 6.93858 67.41745 -1.33915 -5.54234 -17.40828 -8.27619 -3.10131 -2.33593 70.29476 2.53184 3.69381 -23.73329 -8.58356 2.14198 1.81084
